<svg xmlns="http://www.w3.org/2000/svg" width="33" height="36" viewBox="0 0 33 36">
  <metadata><?xpacket begin="﻿" id="W5M0MpCehiHzreSzNTczkc9d"?>
<x:xmpmeta xmlns:x="adobe:ns:meta/" x:xmptk="Adobe XMP Core 5.6-c138 79.159824, 2016/09/14-01:09:01        ">
   <rdf:RDF xmlns:rdf="http://www.w3.org/1999/02/22-rdf-syntax-ns#">
      <rdf:Description rdf:about=""/>
   </rdf:RDF>
</x:xmpmeta>
                                                                                                    
                                                                                                    
                                                                                                    
                                                                                                    
                                                                                                    
                                                                                                    
                                                                                                    
                                                                                                    
                                                                                                    
                                                                                                    
                                                                                                    
                                                                                                    
                                                                                                    
                                                                                                    
                                                                                                    
                                                                                                    
                                                                                                    
                                                                                                    
                                                                                                    
                                                                                                    
                           
<?xpacket end="w"?></metadata>
<defs>
    <style>
      .cls-1 {
        fill: #313131;
        fill-rule: evenodd;
      }
    </style>
  </defs>
  <path id="Etap" class="cls-1" d="M536.705,1553.4l-7.563-6.47a9.265,9.265,0,0,0-5.267-1.93h-8.25a3.393,3.393,0,0,0-3.437,3.33V1549h-2.75a3.393,3.393,0,0,0-3.438,3.33v25.34a3.393,3.393,0,0,0,3.438,3.33h19.937a3.393,3.393,0,0,0,3.437-3.33V1577h2.75a3.393,3.393,0,0,0,3.438-3.33v-15.34A7.288,7.288,0,0,0,536.705,1553.4Zm-5.268,24.27a2.036,2.036,0,0,1-2.062,2H509.438a2.036,2.036,0,0,1-2.063-2v-25.34a2.036,2.036,0,0,1,2.063-2h8.25a7.876,7.876,0,0,1,4.357,1.6l7.563,6.47a6,6,0,0,1,1.829,3.93v15.34Zm6.188-4a2.036,2.036,0,0,1-2.063,2h-2.75v-13.34a7.287,7.287,0,0,0-2.294-4.93l-7.563-6.47a9.268,9.268,0,0,0-5.267-1.93h-4.125v-0.67a2.036,2.036,0,0,1,2.062-2h8.25a7.873,7.873,0,0,1,4.357,1.6l7.563,6.47a6,6,0,0,1,1.83,3.93v15.34ZM520.438,1575h-6.591l5.7-5.53,0.15-.19a3.881,3.881,0,0,0,.739-2.28,4.127,4.127,0,0,0-8.25,0,0.688,0.688,0,0,0,1.375,0,2.751,2.751,0,0,1,5.5,0,2.582,2.582,0,0,1-.484,1.51l-6.391,6.21v1.61h8.25A0.665,0.665,0,1,0,520.438,1575Z" transform="translate(-506 -1545)"/>
</svg>
