<svg xmlns="http://www.w3.org/2000/svg" width="34.031" height="40.97" viewBox="0 0 34.031 40.97">
  <metadata><?xpacket begin="﻿" id="W5M0MpCehiHzreSzNTczkc9d"?>
<x:xmpmeta xmlns:x="adobe:ns:meta/" x:xmptk="Adobe XMP Core 5.6-c138 79.159824, 2016/09/14-01:09:01        ">
   <rdf:RDF xmlns:rdf="http://www.w3.org/1999/02/22-rdf-syntax-ns#">
      <rdf:Description rdf:about=""/>
   </rdf:RDF>
</x:xmpmeta>
                                                                                                    
                                                                                                    
                                                                                                    
                                                                                                    
                                                                                                    
                                                                                                    
                                                                                                    
                                                                                                    
                                                                                                    
                                                                                                    
                                                                                                    
                                                                                                    
                                                                                                    
                                                                                                    
                                                                                                    
                                                                                                    
                                                                                                    
                                                                                                    
                                                                                                    
                                                                                                    
                           
<?xpacket end="w"?></metadata>
<defs>
    <style>
      .cls-1 {
        fill: #313131;
        fill-rule: evenodd;
      }
    </style>
  </defs>
  <path id="Licenziya" class="cls-1" d="M921.228,1328.32H913.1a0.771,0.771,0,0,1-.761-0.78v-8.3a0.77,0.77,0,0,1,.47-0.71,0.753,0.753,0,0,1,.83.16l8.124,8.3a0.794,0.794,0,0,1,.165.85A0.762,0.762,0,0,1,921.228,1328.32Zm-7.362-1.56h5.524l-5.524-5.64v5.64Zm7.362,20.22H900.919a0.763,0.763,0,0,1-.762-0.77v-26.97a0.769,0.769,0,0,1,.762-0.77H913.1a0.775,0.775,0,0,1,0,1.55H901.68v25.41h18.787v-17.89a0.762,0.762,0,1,1,1.523,0v18.67A0.763,0.763,0,0,1,921.228,1346.98Zm-12.186-31.11h-8.123a0.769,0.769,0,0,1-.762-0.77v-8.3a0.773,0.773,0,0,1,.47-0.72,0.756,0.756,0,0,1,.83.17l8.124,8.3a0.778,0.778,0,0,1,.166.84A0.763,0.763,0,0,1,909.042,1315.87Zm-7.362-1.55H907.2l-5.524-5.64v5.64Zm-3.808,20.22h-9.139a0.772,0.772,0,0,1-.762-0.78V1306.8a0.772,0.772,0,0,1,.762-0.78h12.186a0.78,0.78,0,0,1,0,1.56H889.494v25.4h8.378A0.78,0.78,0,0,1,897.872,1334.54Zm11.17-17.63a0.771,0.771,0,0,1-.761-0.78v-1.03a0.762,0.762,0,1,1,1.523,0v1.03A0.772,0.772,0,0,1,909.042,1316.91Z" transform="translate(-887.969 -1306.03)"/>
</svg>
