<svg xmlns="http://www.w3.org/2000/svg" width="37" height="37" viewBox="0 0 37 37">
  <metadata><?xpacket begin="﻿" id="W5M0MpCehiHzreSzNTczkc9d"?>
<x:xmpmeta xmlns:x="adobe:ns:meta/" x:xmptk="Adobe XMP Core 5.6-c138 79.159824, 2016/09/14-01:09:01        ">
   <rdf:RDF xmlns:rdf="http://www.w3.org/1999/02/22-rdf-syntax-ns#">
      <rdf:Description rdf:about=""/>
   </rdf:RDF>
</x:xmpmeta>
                                                                                                    
                                                                                                    
                                                                                                    
                                                                                                    
                                                                                                    
                                                                                                    
                                                                                                    
                                                                                                    
                                                                                                    
                                                                                                    
                                                                                                    
                                                                                                    
                                                                                                    
                                                                                                    
                                                                                                    
                                                                                                    
                                                                                                    
                                                                                                    
                                                                                                    
                                                                                                    
                           
<?xpacket end="w"?></metadata>
<defs>
    <style>
      .cls-1 {
        fill: #222;
        fill-rule: evenodd;
      }
    </style>
  </defs>
  <path id="_-7_" data-name="-7%" class="cls-1" d="M911.5,1583a18.5,18.5,0,1,1,18.5-18.5A18.522,18.522,0,0,1,911.5,1583Zm0-35.8a17.3,17.3,0,1,0,17.3,17.3A17.319,17.319,0,0,0,911.5,1547.2Zm-12.636,19.2h3.885v-1.32h-3.885v1.32Zm6.6,3.06H907.1a20.325,20.325,0,0,1,4.2-9.3v-0.58h-6.735l0.375,1.33h4.23A21.084,21.084,0,0,0,905.464,1569.46Zm10.035-4.71a2.306,2.306,0,0,0,2.34-2.62c0-1.77-1.02-2.64-2.34-2.64A2.648,2.648,0,0,0,915.5,1564.75Zm0-.97c-0.705,0-1.08-.68-1.08-1.65,0-.99.375-1.67,1.08-1.67s1.08,0.68,1.08,1.67C916.579,1563.1,916.219,1563.78,915.5,1563.78Zm6.689,5.83a2.648,2.648,0,1,0-2.339-2.64C919.849,1568.74,920.883,1569.61,922.188,1569.61Zm0-.97c-0.72,0-1.08-.68-1.08-1.67,0-.97.36-1.65,1.08-1.65s1.08,0.68,1.08,1.65C923.268,1567.96,922.893,1568.64,922.188,1568.64Zm-7.109.82h1.305l6.209-9.88h-1.3Z" transform="translate(-893 -1546)"/>
</svg>
