<svg xmlns="http://www.w3.org/2000/svg" width="40.031" height="41.03" viewBox="0 0 40.031 41.03">
  <metadata><?xpacket begin="﻿" id="W5M0MpCehiHzreSzNTczkc9d"?>
<x:xmpmeta xmlns:x="adobe:ns:meta/" x:xmptk="Adobe XMP Core 5.6-c138 79.159824, 2016/09/14-01:09:01        ">
   <rdf:RDF xmlns:rdf="http://www.w3.org/1999/02/22-rdf-syntax-ns#">
      <rdf:Description rdf:about=""/>
   </rdf:RDF>
</x:xmpmeta>
                                                                                                    
                                                                                                    
                                                                                                    
                                                                                                    
                                                                                                    
                                                                                                    
                                                                                                    
                                                                                                    
                                                                                                    
                                                                                                    
                                                                                                    
                                                                                                    
                                                                                                    
                                                                                                    
                                                                                                    
                                                                                                    
                                                                                                    
                                                                                                    
                                                                                                    
                                                                                                    
                           
<?xpacket end="w"?></metadata>
<defs>
    <style>
      .cls-1 {
        fill: #313131;
        fill-rule: evenodd;
      }
    </style>
  </defs>
  <path id="Mesto" class="cls-1" d="M544.016,1319.25a10.08,10.08,0,0,0-4-5.67l2.563-.54a0.758,0.758,0,0,0,.551-0.48,0.773,0.773,0,0,0-.111-0.73,6.185,6.185,0,0,0-6.622-2.52l0.85-3.4a0.756,0.756,0,0,0-.91-0.93,11.159,11.159,0,0,0-5.2,3.5,8.707,8.707,0,0,0-6.8-1.22,0.753,0.753,0,0,0-.569.56,0.778,0.778,0,0,0,.249.77l3.2,2.69a9.785,9.785,0,0,0-7.163,5.61,0.771,0.771,0,0,0,.111.79,0.73,0.73,0,0,0,.745.25l3.15-.72a0.759,0.759,0,0,0-.334-1.48l-1.5.35a9.156,9.156,0,0,1,6.8-3.49,0.734,0.734,0,0,0,.69-0.49,0.683,0.683,0,0,0-.228-0.78l-3.159-2.56h0.019a7.091,7.091,0,0,1,4.408,1.43,0.712,0.712,0,0,0,.576.09,0.753,0.753,0,0,0,.53-0.3,11.594,11.594,0,0,1,3.58-3.04l-0.854,3.41a0.76,0.76,0,0,0,.273.79,0.751,0.751,0,0,0,.825.06,4.649,4.649,0,0,1,5.284.63l-3.034.64a0.761,0.761,0,0,0-.589.64,0.777,0.777,0,0,0,.39.78,11.47,11.47,0,0,1,4.347,4.31l-3.071-1.04a0.849,0.849,0,0,0-.315-0.03,5.39,5.39,0,0,0-1.362-1.61,0.752,0.752,0,0,0-1.052.15,0.771,0.771,0,0,0,.151,1.07c1.648,1.25,2.194,4.47,2.324,6.79l-6.876-7.47a0.747,0.747,0,0,0-.612-0.24,0.768,0.768,0,0,0-.565.34c-1.476,2.26-3.676,5.56-4.977,7.42-0.526-5.62,2.351-7.7,2.5-7.8a0.777,0.777,0,0,0,.205-1.06,0.748,0.748,0,0,0-1.042-.21c-0.183.13-4.458,3.11-2.875,11.12a0.748,0.748,0,0,0,1.268.39c0.588-.59,3.381-4.78,5.055-7.31,0.6,3.41,1.4,12.58-5.22,20.52a24.764,24.764,0,0,0-8.012.14,0.037,0.037,0,0,0-.019-0.02c-4.426-3.5-3.953-9.26-3.707-10.94l3.562,4.11a0.754,0.754,0,0,0,1.266-.23c0.2-.52,1.847-5.09-0.488-6.71a0.742,0.742,0,0,0-1.045.2,0.757,0.757,0,0,0,.194,1.05c0.795,0.56.643,2.28,0.313,3.66l-3.629-4.18a0.747,0.747,0,0,0-1.124-.01c-0.025.03-1.961,2.21-3.593,4.13,0.3-3.22,1.64-4.22,1.688-4.25a0.765,0.765,0,0,0,.232-1.04,0.745,0.745,0,0,0-1.034-.25c-0.11.07-2.686,1.76-2.431,7.7a0.757,0.757,0,0,0,.514.69,0.649,0.649,0,0,0,.237.04,0.747,0.747,0,0,0,.581-0.28c0.818-1.01,2.087-2.48,3.134-3.68-0.185,2.47.048,7.05,3.538,10.42-5.558,1.57-7.61,4.89-7.718,5.07a0.775,0.775,0,0,0-.01.77,0.742,0.742,0,0,0,.654.38h27.066a0.755,0.755,0,0,0,.751-0.76,0.729,0.729,0,0,0-.242-0.55c-0.516-.68-3.233-3.84-8.989-5.15a26.588,26.588,0,0,0,5.095-20.68l6.577,7.14a0.735,0.735,0,0,0,.55.24,0.758,0.758,0,0,0,.257-0.04,0.768,0.768,0,0,0,.493-0.68,20.971,20.971,0,0,0-.787-6.6l3.556,1.2a0.655,0.655,0,0,0,.238.04,0.719,0.719,0,0,0,.5-0.19A0.763,0.763,0,0,0,544.016,1319.25Zm-33.7,25.23c1.524-1.52,5.032-3.99,11.725-3.99,6.425,0,10.217,2.46,11.958,3.99H510.315Zm-2.387-17.87a0.749,0.749,0,0,0-.9-0.57c-0.019,0-.181.04-0.419,0.1a8.664,8.664,0,0,1,2.977-2.12,0.768,0.768,0,0,0,.478-0.75,0.754,0.754,0,0,0-.541-0.69l-2.473-.73a6.318,6.318,0,0,1,4.6.13,0.747,0.747,0,0,0,.831-0.1,0.768,0.768,0,0,0,.223-0.82,22.684,22.684,0,0,1-.52-2.33,5.644,5.644,0,0,1,2.081,2.43,0.744,0.744,0,0,0,.71.52h0.007a0.745,0.745,0,0,0,.5-0.18,9.006,9.006,0,0,1,3.383-.64c-0.629.55-1.446,1.26-2.217,1.92a0.765,0.765,0,0,0,.42,1.34,5.5,5.5,0,0,1,4.246,3.16c-0.121-.05-0.251-0.09-0.392-0.14a0.759,0.759,0,0,0-.479,1.44c0.771,0.26,1.642.57,1.737,0.61a0.8,0.8,0,0,0,.336.08,0.738,0.738,0,0,0,.465-0.17,0.757,0.757,0,0,0,.268-0.76,7.088,7.088,0,0,0-4.526-5.34c2.714-2.34,2.695-2.39,2.513-2.92a0.759,0.759,0,0,0-.5-0.47,10.282,10.282,0,0,0-5.4.3,10.486,10.486,0,0,0-3.848-3.39,0.74,0.74,0,0,0-.783.06,0.759,0.759,0,0,0-.3.73c0.014,0.09.245,1.55,0.511,2.81-3.134-.7-6.379,1.1-6.535,1.19a0.761,0.761,0,0,0,.157,1.39l2.793,0.82a7.844,7.844,0,0,0-3.044,3.56,0.755,0.755,0,0,0,.149.79,0.725,0.725,0,0,0,.771.21c0.743-.23,2.142-0.56,2.156-0.56A0.76,0.76,0,0,0,507.928,1326.61Z" transform="translate(-504 -1304.97)"/>
</svg>
