<svg xmlns="http://www.w3.org/2000/svg" width="28" height="37" viewBox="0 0 28 37">
  <metadata><?xpacket begin="﻿" id="W5M0MpCehiHzreSzNTczkc9d"?>
<x:xmpmeta xmlns:x="adobe:ns:meta/" x:xmptk="Adobe XMP Core 5.6-c138 79.159824, 2016/09/14-01:09:01        ">
   <rdf:RDF xmlns:rdf="http://www.w3.org/1999/02/22-rdf-syntax-ns#">
      <rdf:Description rdf:about=""/>
   </rdf:RDF>
</x:xmpmeta>
                                                                                                    
                                                                                                    
                                                                                                    
                                                                                                    
                                                                                                    
                                                                                                    
                                                                                                    
                                                                                                    
                                                                                                    
                                                                                                    
                                                                                                    
                                                                                                    
                                                                                                    
                                                                                                    
                                                                                                    
                                                                                                    
                                                                                                    
                                                                                                    
                                                                                                    
                                                                                                    
                           
<?xpacket end="w"?></metadata>
<defs>
    <style>
      .cls-1 {
        fill: #313131;
        fill-rule: evenodd;
      }
    </style>
  </defs>
  <path id="Nalog" class="cls-1" d="M906.094,1475.63a0.7,0.7,0,0,1-.5-0.21l-6.645-6.55a0.7,0.7,0,0,1,0-1,0.727,0.727,0,0,1,1.007,0l6.141,6.06,9.938-9.8a0.709,0.709,0,0,1,1.007,0,0.692,0.692,0,0,1,0,.99l-10.442,10.3A0.7,0.7,0,0,1,906.094,1475.63Zm14.239,9.36H895.652a1.649,1.649,0,0,1-1.661-1.64v-28.09a1.655,1.655,0,0,1,1.661-1.64h1.9a0.705,0.705,0,1,1,0,1.41h-1.9a0.233,0.233,0,0,0-.237.23v28.09a0.241,0.241,0,0,0,.237.24h24.681a0.242,0.242,0,0,0,.237-0.24v-28.09a0.233,0.233,0,0,0-.237-0.23h-1.9a0.705,0.705,0,1,1,0-1.41h1.9a1.656,1.656,0,0,1,1.661,1.64v28.09A1.649,1.649,0,0,1,920.333,1484.99Zm-5.7-28.09H901.348a1.474,1.474,0,0,1-1.164-.54,1.412,1.412,0,0,1-.246-1.24l0.489-1.93a1.992,1.992,0,0,1,1.87-1.44h1.9a0.576,0.576,0,0,0,.489-0.38l0.489-1.93a1.992,1.992,0,0,1,1.87-1.44h1.9a1.991,1.991,0,0,1,1.869,1.44l0.49,1.93a0.576,0.576,0,0,0,.488.38h1.9a1.992,1.992,0,0,1,1.87,1.44l0.489,1.93a1.41,1.41,0,0,1-.247,1.24A1.47,1.47,0,0,1,914.637,1456.9Zm-12.34-3.75a0.577,0.577,0,0,0-.489.38l-0.489,1.93,13.318,0.03-0.461-1.96a0.576,0.576,0,0,0-.488-0.38h-1.9a1.991,1.991,0,0,1-1.869-1.44l-0.49-1.93a0.582,0.582,0,0,0-.488-0.37h-1.9a0.582,0.582,0,0,0-.488.37l-0.49,1.93a1.991,1.991,0,0,1-1.87,1.44h-1.9Z" transform="translate(-894 -1448)"/>
</svg>
