<svg xmlns="http://www.w3.org/2000/svg" width="40" height="38" viewBox="0 0 40 38">
  <metadata><?xpacket begin="﻿" id="W5M0MpCehiHzreSzNTczkc9d"?>
<x:xmpmeta xmlns:x="adobe:ns:meta/" x:xmptk="Adobe XMP Core 5.6-c138 79.159824, 2016/09/14-01:09:01        ">
   <rdf:RDF xmlns:rdf="http://www.w3.org/1999/02/22-rdf-syntax-ns#">
      <rdf:Description rdf:about=""/>
   </rdf:RDF>
</x:xmpmeta>
                                                                                                    
                                                                                                    
                                                                                                    
                                                                                                    
                                                                                                    
                                                                                                    
                                                                                                    
                                                                                                    
                                                                                                    
                                                                                                    
                                                                                                    
                                                                                                    
                                                                                                    
                                                                                                    
                                                                                                    
                                                                                                    
                                                                                                    
                                                                                                    
                                                                                                    
                                                                                                    
                           
<?xpacket end="w"?></metadata>
<defs>
    <style>
      .cls-1 {
        fill: #313131;
        fill-rule: evenodd;
      }
    </style>
  </defs>
  <path id="Rost" class="cls-1" d="M506.319,1469.18a0.485,0.485,0,0,1-.2-0.93l7.585-3.37,5.937,1.64,14.49-9.15a0.5,0.5,0,0,1,.684.15,0.478,0.478,0,0,1-.15.67l-14.863,9.38-6.019-1.66-7.257,3.23A0.484,0.484,0,0,1,506.319,1469.18Zm33.937-13.83a0.365,0.365,0,0,0,.371-0.36v-2.26a0.373,0.373,0,0,0-.371-0.37H501.742a0.374,0.374,0,0,0-.371.37v2.26a0.365,0.365,0,0,0,.371.36h0.546v20.47h-0.546a0.374,0.374,0,0,0-.371.37v2.25a0.374,0.374,0,0,0,.371.37H511.9l-3.092,8.53a1.719,1.719,0,0,0,1.059,2.2,1.923,1.923,0,0,0,.583.09,1.739,1.739,0,0,0,1.648-1.14l3.511-9.68h3.643v9.11a1.747,1.747,0,0,0,3.493,0v-9.11h3.184l3.511,9.68a1.739,1.739,0,0,0,1.648,1.14,1.665,1.665,0,0,0,.584-0.1,1.706,1.706,0,0,0,1.058-2.19l-3.092-8.53h10.617a0.373,0.373,0,0,0,.371-0.37v-2.25a0.373,0.373,0,0,0-.371-0.37H539.71v-20.47h0.546Zm-0.371,21.2v1.53H502.113v-1.53h37.772ZM521,1488.9a0.993,0.993,0,0,1-1-.98v-9.11H522v9.11A0.994,0.994,0,0,1,521,1488.9Zm-17.969-13.08v-20.47h35.938v20.47H503.03Zm-0.917-21.2v-1.53h37.772v1.53H502.113Zm12.71,24.19-3.423,9.44a1.006,1.006,0,0,1-.949.65,0.953,0.953,0,0,1-.335-0.05,0.993,0.993,0,0,1-.608-1.27l3.181-8.77h2.134Zm14.028,0,3.181,8.77a0.979,0.979,0,0,1-.038.76,1,1,0,0,1-.57.51,0.959,0.959,0,0,1-.336.05,1,1,0,0,1-.948-0.65l-3.422-9.44h2.133ZM521,1490a2.1,2.1,0,0,1-2.117-2.08v-8.75h-3.01l-3.424,9.45a2.136,2.136,0,0,1-2.7,1.26,2.077,2.077,0,0,1-1.285-2.66l2.916-8.05h-9.633a0.732,0.732,0,0,1-.742-0.73v-2.25a0.732,0.732,0,0,1,.742-0.73h0.175v-19.74h-0.175a0.739,0.739,0,0,1-.742-0.73v-2.26a0.739,0.739,0,0,1,.742-0.73h38.514a0.738,0.738,0,0,1,.742.73v2.26a0.738,0.738,0,0,1-.742.73h-0.175v19.74h0.175a0.732,0.732,0,0,1,.742.73v2.25a0.732,0.732,0,0,1-.742.73H530.165l2.916,8.05a2.035,2.035,0,0,1-.081,1.59,2.111,2.111,0,0,1-1.2,1.07,2.14,2.14,0,0,1-2.707-1.26l-3.422-9.45h-2.552v8.75A2.1,2.1,0,0,1,521,1490Zm-1.375-2.08a1.376,1.376,0,0,0,2.751,0v-9.48h0v9.48A1.376,1.376,0,0,1,519.624,1487.92Zm-9.531,1.3a1.407,1.407,0,0,0,1.6-.72A1.41,1.41,0,0,1,510.093,1489.22Zm21.419-.02-0.083.03Zm0.948-1.21a1.336,1.336,0,0,1-.131.51,1.383,1.383,0,0,1-.462.53,1.366,1.366,0,0,0,.462-0.53A1.336,1.336,0,0,0,532.46,1487.99Zm-5.216-8.82,3.245,8.96a0.642,0.642,0,0,0,.811.37,0.608,0.608,0,0,0,.358-0.32,0.593,0.593,0,0,0,.025-0.47l-3.094-8.54h-1.345Zm-6.878,0v8.75a0.634,0.634,0,0,0,1.267,0v-8.75h-1.267Zm-7.416,0-3.093,8.54a0.614,0.614,0,0,0,.384.79,0.653,0.653,0,0,0,.809-0.37l3.246-8.96H512.95Zm16.163-.73,2.508,6.92-2.508-6.92h11.143v0H529.113Zm-13.764,0h0Zm-13.607,0h0Zm0.742-.73h37.03v-0.79h-37.03v0.79Zm0.175-1.52h36.68v-21.2h0v21.2h-36.68Zm0.742-.73h35.2v-19.74H503.4v19.74Zm36.855-20.47v0h0Zm-37.772-.73h37.03v-0.8h-37.03v0.8Zm32.27,18.37H506.327a0.365,0.365,0,1,0,0,.73h28.427A0.365,0.365,0,1,0,534.754,1472.63Zm0,1.09H506.327a0.73,0.73,0,1,1,0-1.46h28.427A0.73,0.73,0,1,1,534.754,1473.72Zm-28.427-.73h0Zm-0.008-3.56a0.743,0.743,0,0,1-.677-0.43,0.731,0.731,0,0,1,.371-0.97l7.667-3.41,5.917,1.63,14.4-9.08a0.746,0.746,0,0,1,1.025.22,0.725,0.725,0,0,1-.224,1.01l-14.957,9.44-6.039-1.67-7.175,3.19A0.83,0.83,0,0,1,506.319,1469.43Z" transform="translate(-501 -1452)"/>
</svg>
